<?xml version="1.0" encoding="utf-8"?>

<!DOCTYPE svg PUBLIC "-//W3C//DTD SVG 1.1//EN" "http://www.w3.org/Graphics/SVG/1.1/DTD/svg11.dtd">

<svg version="1.1" id="soi" xmlns="http://www.w3.org/2000/svg" xmlns:xlink="http://www.w3.org/1999/xlink" x="0px" y="0px" width="32px" height="32px" viewBox="0 0 32 32" enable-background="new 0 0 32 32" xml:space="preserve">

<path fill="#c0c0c0" d="M0,16.321C0,21.547,0,26.772,0,32c6.337,0,12.672,0,19.009,0c0-3.731,0-7.46,0-11.19
	c-1.693,0-3.387,0-5.082,0c0,1.985,0,3.968,0,5.952c-2.948,0-5.896,0-8.842,0c0-3.477,0-6.95,0-10.426
	c0-1.295,0.273-3.044,0.823-4.29c0.549-1.246,1.359-2.38,2.431-3.404c0.939-0.894,2.081-1.589,3.429-2.091
	c1.347-0.5,2.799-0.75,4.357-0.75c1.425,0,2.824,0.28,4.196,0.839c1.37,0.559,2.538,1.304,3.503,2.236
	c1,0.97,1.754,2.049,2.259,3.241c0.504,1.192,0.756,2.914,0.756,4.207c0,5.227,0,10.451,0,15.677c1.762,0,3.522,0,5.285,0
	c0-5.115,0-10.231,0-15.347c0-2.251-0.372-4.785-1.118-6.643c-0.747-1.859-1.868-3.532-3.366-5.024
	c-1.555-1.58-3.299-2.78-5.235-3.597c-1.938-0.82-3.988-1.229-6.154-1.229c-2.133,0-4.126,0.338-5.98,1.013
	C8.417,1.85,6.762,2.847,5.3,4.165C3.546,5.716,2.224,7.469,1.335,9.423C0.444,11.375,0,13.996,0,16.321z"/>
</svg>
