<?xml version="1.0" encoding="UTF-8"?>
<!DOCTYPE svg PUBLIC "-//W3C//DTD SVG 1.1//EN" "http://www.w3.org/Graphics/SVG/1.1/DTD/svg11.dtd">
<svg xmlns="http://www.w3.org/2000/svg" xmlns:xlink="http://www.w3.org/1999/xlink" version="1.1" id="Layer_1" x="0px" y="0px" width="512px" height="438.857px" viewBox="0 0 512 438.857" enable-background="new 0 0 512 438.857" xml:space="preserve">
<path d="M341.333,219.429c0-26.94-21.821-48.762-48.762-48.762s-48.762,21.821-48.762,48.762s21.821,48.762,48.762,48.762  S341.333,246.369,341.333,219.429z M292.571,0C171.398,0,73.143,98.256,73.143,219.429H0l97.523,97.523l97.524-97.523h-73.144  c0-94.232,76.435-170.667,170.667-170.667c94.238,0,170.667,76.435,170.667,170.667c0,94.238-76.429,170.667-170.667,170.667  c-36.935,0-70.946-11.822-98.988-31.81l-34.5,34.976c37.06,28.524,83.263,45.596,133.488,45.596  C413.738,438.857,512,340.596,512,219.429C512,98.256,413.738,0,292.571,0z" fill="#C0C0C0"/>
</svg>
